<svg xmlns="http://www.w3.org/2000/svg" width="187.648" height="187.648" viewBox="0 0 187.648 187.648"><g id="Сгруппировать_339" data-name="Сгруппировать 339" transform="translate(20933.669 -1950.502)"><path id="Контур_683" data-name="Контур 683" d="M98.212 204.647a93.824 93.824 0 1193.826-93.826 93.928 93.928 0 01-93.826 93.826m0-173.857a80.033 80.033 0 1080.035 80.031A80.121 80.121 0 0098.212 30.79" transform="translate(-20938.059 1933.503)" fill="#040405"/><path id="Контур_721" data-name="Контур 721" d="M18.506 91.7c-.159.507-.314 1.01-.445 1.5a11.047 11.047 0 00-.262 1.093 6.848 6.848 0 00-.207.941c-.086.5-.179.986-.228 1.469a9.056 9.056 0 00-.11.979c-.034.324-.069.634-.086.962a28.53 28.53 0 00-.055 1.71c0 .424.017.845.034 1.255a8.308 8.308 0 00.055.938 27.175 27.175 0 00.655 4.213 28.071 28.071 0 001.969 5.534c.3.6.607 1.189.931 1.751.155.279.331.545.5.855.186.293.376.583.569.872.293.428.572.838.883 1.21.134.193.269.362.417.548.276.348.559.683.845 1a7.347 7.347 0 00.5.559 10.785 10.785 0 00.772.807c.245.245.49.49.752.731.241.221.469.438.71.624.29.255.572.5.865.721.369.3.738.579 1.114.834a2.227 2.227 0 00.269.193c.545.379 1.083.714 1.624 1.038a2.967 2.967 0 00.714.383l.831.3.169-.865a19.615 19.615 0 01.834-2.965 19.971 19.971 0 013.6-6.12 2.487 2.487 0 013.775 3.237 15.409 15.409 0 00-2.7 4.585 15.085 15.085 0 00-.948 5.254 4.53 4.53 0 00.021.552v.128a15.713 15.713 0 00.4 2.865.893.893 0 00.062.255c.107.379.21.741.352 1.162a.719.719 0 01.041.11l.014.069.024.069c.128.324.259.648.393.941a3.958 3.958 0 00.269.541 6.138 6.138 0 00.379.734c.221.383.455.758.707 1.127a10.093 10.093 0 00.638.848 2.045 2.045 0 00.2.252c.241.293.5.572.8.9.045.041.09.086.134.131l.062.062a7.188 7.188 0 00.721.648c.117.11.221.21.372.334.352.276.7.541 1.065.779a7.969 7.969 0 00.834.527c.176.1.345.2.579.338.386.183.765.372 1.162.538.224.093.455.183.69.269a15.315 15.315 0 005.192.91 15.091 15.091 0 0015.094-15.091V42.807a15.107 15.107 0 00-25.52-10.933 5.515 5.515 0 00-.493.49 2.007 2.007 0 00-.186.214 6.812 6.812 0 00-.69.79 1.492 1.492 0 00-.083.11l-.028.021-.034.048a9.406 9.406 0 00-.672.962 1.1 1.1 0 00-.193.307 9.114 9.114 0 00-.555.941 1.354 1.354 0 00-.117.234 10.363 10.363 0 00-.483 1.052l-.034.083a1 1 0 00-.09.228 8.057 8.057 0 00-.331.945 2.448 2.448 0 00-.162.569 3.39 3.39 0 00-.128.524 6.438 6.438 0 00-.214 1.107 1.36 1.36 0 00-.055.321 6.866 6.866 0 00-.086.993 9.6 9.6 0 00-.055 1 15.031 15.031 0 001.645 6.84 14.7 14.7 0 003.448 4.448l.059.055.069.038a3.363 3.363 0 01.4.241 8.155 8.155 0 002.274 1.165 8.028 8.028 0 008.264-13.2 2.486 2.486 0 013.568-3.461 12.966 12.966 0 01-.134 18.238 13.338 13.338 0 01-1.762 1.472l-.883.61.869.627a19.751 19.751 0 012.348 2 20 20 0 015.889 14.2 20.148 20.148 0 01-6.033 14.342 2.485 2.485 0 11-3.493-3.537 15.1 15.1 0 10-22.569-19.957 2.5 2.5 0 01-3.968-3.027 20.1 20.1 0 017.075-5.823 20.327 20.327 0 012.455-1.017l1.058-.365-.727-.848a20.132 20.132 0 01-2.637-3.972 19.741 19.741 0 01-1.765-5.1l-.2-1.031-.914.51a25.34 25.34 0 00-1.4.827c-.362.238-.714.49-1.076.738a22.16 22.16 0 00-2.169 1.727 12.244 12.244 0 00-1.038.965 4.2 4.2 0 00-.434.414c-.29.293-.565.576-.827.893a5.121 5.121 0 00-.6.679 8.034 8.034 0 00-.627.776 9.291 9.291 0 00-.641.848c-.221.293-.421.583-.624.883h-.007l-.228.352a27.3 27.3 0 00-4.4 14.935c0 .534.014 1.055.055 1.558 0 .155.017.3.017.527.052.524.1 1.048.179 1.569.066.493.138.976.224 1.445a2.821 2.821 0 00.079.4c.107.527.238 1.034.359 1.555a.687.687 0 00.052.169 11.451 11.451 0 00.334 1.1c.138.465.286.91.465 1.358a2.692 2.692 0 00.2.51 6.855 6.855 0 00.376.907c.165.383.324.748.507 1.1.245.524.521 1.027.814 1.527a1.184 1.184 0 00.121.217c.272.469.548.917.852 1.365a27.748 27.748 0 006.8 7.03l1.186.855.021-1.462a20.083 20.083 0 016.02-13.956 2.483 2.483 0 113.489 3.534 14.987 14.987 0 00-4.543 10.817 14.568 14.568 0 00.772 4.751 2.472 2.472 0 00.086.265 15.16 15.16 0 0014.253 10.085 14.877 14.877 0 008.8-2.827 2.5 2.5 0 013.475.565 2.471 2.471 0 01-.565 3.458 20.174 20.174 0 01-5.492 2.789l-.965.31.576.841c.031.048.055.09.072.121a13.378 13.378 0 01-3.744 17.152 2.486 2.486 0 11-2.968-3.989A8.5 8.5 0 0051.514 123a8.544 8.544 0 00-.152-7.843 8.218 8.218 0 00-2.155-2.517l-.19-.148-.238-.014a19.943 19.943 0 01-13.16-5.854A20.3 20.3 0 0131.3 100.2l-.114-.269-.265-.124a32.733 32.733 0 01-11.081-8.481l-1.34-1.582.052 1.82a.878.878 0 00-.045.134m79.335 45.558c.231-.276.438-.565.638-.855.255-.369.49-.745.7-1.117a7.276 7.276 0 00.39-.745 4.027 4.027 0 00.255-.521c.148-.314.279-.641.4-.969l.028-.055.01-.062a1.091 1.091 0 01.062-.169c.128-.372.231-.745.334-1.107a1.175 1.175 0 00.062-.259 15.736 15.736 0 00.407-2.913v-.048a5.649 5.649 0 00.021-.59 15.009 15.009 0 00-.952-5.254 15.327 15.327 0 00-2.693-4.585 2.487 2.487 0 013.775-3.237 19.911 19.911 0 013.606 6.12 19.209 19.209 0 01.831 2.965l.172.865.831-.3a2.553 2.553 0 00.679-.369c.572-.338 1.11-.669 1.624-1.034a2.759 2.759 0 00.286-.2c.39-.269.758-.548 1.11-.834.31-.234.593-.479.869-.721.252-.2.483-.417.738-.645s.5-.479.724-.71c.279-.259.534-.534.772-.8a6.935 6.935 0 00.507-.565c.3-.331.579-.665.848-1.007q.228-.274.4-.527c.328-.4.614-.81.9-1.238.193-.29.383-.579.586-.9.152-.276.328-.541.483-.817.328-.576.634-1.165.945-1.772a28.252 28.252 0 001.955-5.52 26.466 26.466 0 00.655-4.2 7.321 7.321 0 00.059-.938 25.845 25.845 0 00-.018-2.982c-.021-.328-.055-.638-.086-.945a11.988 11.988 0 00-.107-.972 24.785 24.785 0 00-.234-1.493 6.714 6.714 0 00-.2-.9 15.206 15.206 0 00-.269-1.12c-.141-.507-.286-1-.441-1.5v-1.967l-1.341 1.582a32.679 32.679 0 01-11.075 8.474l-.262.124-.117.269a20.1 20.1 0 01-17.476 12.277l-.241.014-.19.148A8.45 8.45 0 0086.5 123a8.514 8.514 0 002.486 2.948 2.485 2.485 0 11-2.965 3.989 13.4 13.4 0 01-3.965-4.734 13.205 13.205 0 01-1.424-5.992 13.383 13.383 0 011.624-6.4c.041-.055.062-.107.1-.166l.548-.831-.945-.307a20.1 20.1 0 01-5.489-2.789 2.481 2.481 0 112.9-4.023 15.99 15.99 0 004.185 2.117 15.678 15.678 0 004.62.71 15.148 15.148 0 0014.275-10.141c.024-.072.048-.124.059-.172a14.839 14.839 0 00.779-4.785 14.936 14.936 0 00-4.541-10.809 2.484 2.484 0 013.493-3.534 20.083 20.083 0 016.02 13.956l.021 1.462 1.186-.855a27.746 27.746 0 006.8-7.03q.45-.672.838-1.345a2.209 2.209 0 00.131-.224c.293-.507.572-1.01.807-1.52.2-.372.355-.738.514-1.11a7.946 7.946 0 00.379-.921 2.606 2.606 0 00.2-.51c.179-.445.328-.893.459-1.334.134-.372.241-.745.341-1.124a.922.922 0 00.052-.165c.121-.527.255-1.034.348-1.527a2.228 2.228 0 00.086-.421c.09-.486.162-.965.231-1.458.072-.517.121-1.045.179-1.645 0-.152.017-.3.017-.421.038-.534.052-1.055.052-1.589a27.344 27.344 0 00-4.4-14.935l-.221-.352h-.01c-.2-.3-.4-.583-.607-.858a9.288 9.288 0 00-.645-.858 8.779 8.779 0 00-.641-.79 4.546 4.546 0 00-.607-.679 11.672 11.672 0 00-.807-.876 4.486 4.486 0 00-.421-.4 12.678 12.678 0 00-1.055-.979 22.052 22.052 0 00-2.182-1.741c-.359-.248-.71-.5-1.076-.738a25.34 25.34 0 00-1.4-.827l-.917-.51-.2 1.031a19.613 19.613 0 01-1.765 5.1 20.132 20.132 0 01-2.637 3.972l-.724.848 1.058.365a20.561 20.561 0 012.455 1.017 20.053 20.053 0 017.071 5.823 2.494 2.494 0 01-3.965 3.027 15.014 15.014 0 00-5.309-4.379 15.073 15.073 0 00-17.369 2.862 15.066 15.066 0 00.11 21.472 2.485 2.485 0 11-3.493 3.537 20.024 20.024 0 01-4.451-6.547 20.247 20.247 0 01-1.586-7.8 19.967 19.967 0 018.233-16.2l.876-.627-.883-.61a13.4 13.4 0 01-1.769-1.472 12.971 12.971 0 01-.134-18.238A2.487 2.487 0 0185 42.4a8.009 8.009 0 00.1 11.246 8.008 8.008 0 008.166 1.954 8.178 8.178 0 002.269-1.179 3.171 3.171 0 01.393-.231l.072-.04.055-.055a14.645 14.645 0 003.445-4.448 15.031 15.031 0 001.645-6.84 9.128 9.128 0 00-.052-.955 6.479 6.479 0 00-.09-1.034 1.4 1.4 0 00-.041-.279 6.989 6.989 0 00-.217-1.107 3.3 3.3 0 00-.138-.565 2.264 2.264 0 00-.162-.565 7.338 7.338 0 00-.334-.958 1.44 1.44 0 00-.069-.193c-.021-.038-.034-.072-.052-.11a10.661 10.661 0 00-.483-1.048 1.227 1.227 0 00-.124-.241 8.61 8.61 0 00-.552-.941 1.052 1.052 0 00-.19-.3 9.374 9.374 0 00-.669-.962l-.034-.038c-.041-.052-.072-.1-.114-.145a6.408 6.408 0 00-.686-.783 1.382 1.382 0 00-.172-.2 5.048 5.048 0 00-.49-.49 15.1 15.1 0 00-25.538 10.914v85.041a15.085 15.085 0 0015.094 15.091 15.3 15.3 0 005.189-.91q.352-.129.693-.269c.393-.165.776-.355 1.217-.569.172-.1.345-.207.5-.3a8.3 8.3 0 00.845-.527c.376-.248.727-.514 1.1-.807.128-.11.238-.207.324-.293a7.59 7.59 0 00.741-.669.825.825 0 00.076-.072c.045-.041.076-.083.172-.172.259-.279.517-.555.758-.852.069-.083.131-.155.193-.245" transform="translate(-20906.92 1959.728)" fill="#040405" fill-rule="evenodd"/><path id="Контур_722" data-name="Контур 722" d="M50.25 67.174a14.98 14.98 0 10-14.98-14.98 15.008 15.008 0 0014.98 14.98" transform="translate(-20862.477 1982.983)" fill="#ffad17" fill-rule="evenodd"/><path id="Контур_723" data-name="Контур 723" d="M34.628 64.646a7.9 7.9 0 10-7.9-7.9 7.915 7.915 0 007.9 7.9" transform="translate(-20883.387 2011.445)" fill="#ffad17" fill-rule="evenodd"/><path id="Контур_724" data-name="Контур 724" d="M28.873 51.966a6.183 6.183 0 10-6.182-6.182 6.192 6.192 0 006.182 6.182" transform="translate(-20893.264 1988.821)" fill="#ffad17" fill-rule="evenodd"/></g></svg>