<svg xmlns="http://www.w3.org/2000/svg" width="163.382" height="65.982" viewBox="0 0 163.382 65.982"><g id="Сгруппировать_359" data-name="Сгруппировать 359" transform="translate(20710.782 -1993.842)"><path id="Контур_391" data-name="Контур 391" d="M108.881 59.691a5.606 5.606 0 10-5.606-5.606 5.616 5.616 0 005.606 5.606" transform="translate(-20814.057 1972.98)" fill="#ffad17" fill-rule="evenodd"/><path id="Контур_658" data-name="Контур 658" d="M219.227 102.209a4.5 4.5 0 01-3.755-2.015L198.817 75.1h-30.934a4.5 4.5 0 01-3.71-1.947l-16.892-24.468-15.408 22.457a4.507 4.507 0 01-3.717 1.959h-12.744a4.508 4.508 0 010-9.016h10.368l17.773-25.9a4.507 4.507 0 013.71-1.956h.007a4.506 4.506 0 013.71 1.945l19.27 27.911h30.988a4.513 4.513 0 013.755 2.015l13.988 21.08 13.342-22.86a4.5 4.5 0 013.893-2.236h16.366a4.508 4.508 0 010 9.016h-13.776l-15.684 26.873a4.516 4.516 0 01-3.764 2.234h-.131" transform="translate(-20804.49 1957.615)" fill="#040405"/></g></svg>