<svg xmlns="http://www.w3.org/2000/svg" width="154.833" height="144.913" viewBox="0 0 154.833 144.913"><g id="Сгруппировать_361" data-name="Сгруппировать 361" transform="translate(20181.924 -1944.962)"><path id="Контур_729" data-name="Контур 729" d="M350.542 112.764a2.253 2.253 0 01-1.314-4.087l110.934-79.454a2.254 2.254 0 012.624 3.665l-110.934 79.454a2.247 2.247 0 01-1.31.422" transform="translate(-20506.811 1948.304)" fill="#040405"/><path id="Контур_730" data-name="Контур 730" d="M384.958 93.4a2.254 2.254 0 01-2.069-1.357l-29.983-68.954a2.254 2.254 0 014.134-1.8l29.983 68.961a2.256 2.256 0 01-2.065 3.153" transform="translate(-20501.25 1937.184)" fill="#040405"/><path id="Контур_731" data-name="Контур 731" d="M431.118 49.512a2.156 2.156 0 01-.518-.061l-72.706-17.164a2.253 2.253 0 111.035-4.386l72.705 17.164a2.254 2.254 0 01-.516 4.447" transform="translate(-20496.941 1947.094)" fill="#040405"/><path id="Контур_732" data-name="Контур 732" d="M457.8 113.414a2.25 2.25 0 01-2.076-1.377L430.185 51.63l-40.374-9.444-47.082 48.064a2.254 2.254 0 11-3.221-3.153l47.97-48.971a2.254 2.254 0 012.123-.618l42.725 9.992a2.253 2.253 0 011.564 1.316l25.984 61.462a2.258 2.258 0 01-2.076 3.133" transform="translate(-20518.625 1959.147)" fill="#040405"/><path id="Контур_733" data-name="Контур 733" d="M367.833 69.436a2.254 2.254 0 01-.633-4.418l83.7-24.485a2.255 2.255 0 011.267 4.328l-83.7 24.483a2.21 2.21 0 01-.633.092" transform="translate(-20485.125 1962.9)" fill="#040405"/><path id="Контур_734" data-name="Контур 734" d="M416.677 152.483c-.074 0-.151 0-.225-.011a2.254 2.254 0 01-2.02-2.466c.122-1.382.117-18.309.07-36.071l-29.539-6.478a2.217 2.217 0 01-.929-.442l-39.229-31.482a2.256 2.256 0 01-.183-3.352l55.469-55.467a2.252 2.252 0 013.825 1.9l-8.369 60.554L438.9 24.651a2.254 2.254 0 013.872.6l30.731 81.2a2.253 2.253 0 01-2.741 2.962l-51.82-15.137c.016 3.543.038 9.4.056 16.031l23.893 5.241a2.253 2.253 0 11-.965 4.4l-22.914-5.024c.043 15.9.056 34.038-.095 35.53a2.253 2.253 0 01-2.241 2.029m-30.233-49.316l28.044 6.151c-.018-6.286-.043-12.517-.068-18.043a2.255 2.255 0 012.885-2.175l50.377 14.723-27.725-73.262-46 57.858a2.253 2.253 0 01-4-1.711l8.574-62.062-48.942 48.945z" transform="translate(-20512.23 1932.32)" fill="#040405"/><path id="Контур_735" data-name="Контур 735" d="M365.061 85.247a2.254 2.254 0 01-.645-4.413l57.714-17.241a2.254 2.254 0 011.292 4.319l-57.716 17.24a2.287 2.287 0 01-.645.095" transform="translate(-20488.6 1991.811)" fill="#040405"/><path id="Контур_736" data-name="Контур 736" d="M389.638 86.752a2.234 2.234 0 01-1.361-.46l-31.232-23.735a2.255 2.255 0 012.73-3.591L391 82.7a2.254 2.254 0 01-1.366 4.048" transform="translate(-20496.939 1985.557)" fill="#040405"/><path id="Контур_737" data-name="Контур 737" d="M416.383 34.906a2.188 2.188 0 01-.4-.036l-46.221-8.245a2.254 2.254 0 01.793-4.438l46.221 8.247a2.254 2.254 0 01-.395 4.472" transform="translate(-20482.205 1939.962)" fill="#040405"/><path id="Контур_738" data-name="Контур 738" d="M351.651 91.132a2.257 2.257 0 01-2.128-3l19.238-54.716a2.254 2.254 0 114.253 1.494l-19.24 54.716a2.252 2.252 0 01-2.123 1.508" transform="translate(-20505.42 1952.197)" fill="#040405"/><path id="Контур_739" data-name="Контур 739" d="M360.2 23.249a4.161 4.161 0 11-4.161-4.161 4.161 4.161 0 014.161 4.161" transform="translate(-20502.311 1936.123)" fill="#ffad1b" fill-rule="evenodd"/><path id="Контур_740" data-name="Контур 740" d="M357.289 30.918a6.415 6.415 0 116.417-6.415 6.422 6.422 0 01-6.417 6.415m0-8.322A1.907 1.907 0 10359.2 24.5a1.908 1.908 0 00-1.909-1.907" transform="translate(-20503.564 1934.869)" fill="#040405"/><path id="Контур_741" data-name="Контур 741" d="M375.271 26.242a4.161 4.161 0 11-4.161-4.161 4.161 4.161 0 014.161 4.161" transform="translate(-20483.406 1939.876)" fill="#ffad1b" fill-rule="evenodd"/><path id="Контур_742" data-name="Контур 742" d="M372.364 33.911a6.415 6.415 0 116.417-6.415 6.422 6.422 0 01-6.417 6.415m0-8.322a1.907 1.907 0 101.909 1.907 1.908 1.908 0 00-1.909-1.907" transform="translate(-20484.66 1938.622)" fill="#040405"/><path id="Контур_743" data-name="Контур 743" d="M374.052 33.78a4.161 4.161 0 11-4.161-4.161 4.161 4.161 0 014.161 4.161" transform="translate(-20484.936 1949.329)" fill="#ffad1b" fill-rule="evenodd"/><path id="Контур_744" data-name="Контур 744" d="M371.144 41.45a6.416 6.416 0 116.417-6.415 6.422 6.422 0 01-6.417 6.415m0-8.324a1.908 1.908 0 101.909 1.909 1.909 1.909 0 00-1.909-1.909" transform="translate(-20486.189 1948.073)" fill="#040405"/><path id="Контур_745" data-name="Контур 745" d="M393.228 22.03a4.161 4.161 0 11-4.161-4.161 4.161 4.161 0 014.161 4.161" transform="translate(-20460.889 1934.594)" fill="#ffad1b" fill-rule="evenodd"/><path id="Контур_746" data-name="Контур 746" d="M390.321 29.7a6.415 6.415 0 116.417-6.415 6.422 6.422 0 01-6.417 6.415m0-8.322a1.907 1.907 0 101.909 1.907 1.908 1.908 0 00-1.909-1.907" transform="translate(-20462.143 1933.34)" fill="#040405"/><path id="Контур_747" data-name="Контур 747" d="M388.795 27.9a4.161 4.161 0 11-4.161-4.161 4.161 4.161 0 014.161 4.161" transform="translate(-20466.447 1941.961)" fill="#ffad1b" fill-rule="evenodd"/><path id="Контур_748" data-name="Контур 748" d="M385.888 35.574a6.415 6.415 0 116.415-6.415 6.423 6.423 0 01-6.415 6.415m0-8.322a1.907 1.907 0 101.907 1.907 1.91 1.91 0 00-1.907-1.907" transform="translate(-20467.703 1940.707)" fill="#040405"/><path id="Контур_749" data-name="Контур 749" d="M395.889 29.124a4.161 4.161 0 11-4.161-4.161 4.161 4.161 0 014.161 4.161" transform="translate(-20457.551 1943.49)" fill="#ffad1b" fill-rule="evenodd"/><path id="Контур_750" data-name="Контур 750" d="M392.981 36.793a6.415 6.415 0 116.417-6.415 6.422 6.422 0 01-6.417 6.415m0-8.322a1.907 1.907 0 101.909 1.907 1.908 1.908 0 00-1.909-1.907" transform="translate(-20458.807 1942.236)" fill="#040405"/><path id="Контур_751" data-name="Контур 751" d="M397.662 37.881a4.161 4.161 0 11-4.162-4.161 4.161 4.161 0 014.161 4.161" transform="translate(-20455.328 1954.471)" fill="#ffad1b" fill-rule="evenodd"/><path id="Контур_752" data-name="Контур 752" d="M394.756 45.55a6.415 6.415 0 116.415-6.415 6.423 6.423 0 01-6.415 6.415m0-8.322a1.907 1.907 0 101.907 1.907 1.91 1.91 0 00-1.907-1.907" transform="translate(-20456.582 1953.217)" fill="#040405"/><path id="Контур_753" data-name="Контур 753" d="M402.207 46.084a4.161 4.161 0 11-4.161-4.161 4.161 4.161 0 014.161 4.161" transform="translate(-20449.629 1964.758)" fill="#ffad1b" fill-rule="evenodd"/><path id="Контур_754" data-name="Контур 754" d="M399.3 53.753a6.415 6.415 0 116.417-6.415 6.422 6.422 0 01-6.417 6.415m0-8.322a1.907 1.907 0 101.909 1.907 1.908 1.908 0 00-1.909-1.907" transform="translate(-20450.883 1963.504)" fill="#040405"/><path id="Контур_755" data-name="Контур 755" d="M376.158 19.7A4.161 4.161 0 11372 15.541a4.161 4.161 0 014.161 4.161" transform="translate(-20482.293 1931.675)" fill="#ffad1b" fill-rule="evenodd"/><path id="Контур_756" data-name="Контур 756" d="M373.251 27.373a6.416 6.416 0 116.417-6.417 6.424 6.424 0 01-6.417 6.417m0-8.324a1.908 1.908 0 101.909 1.907 1.908 1.908 0 00-1.909-1.907" transform="translate(-20483.547 1930.421)" fill="#040405"/><path id="Контур_757" data-name="Контур 757" d="M363.965 31.785a4.161 4.161 0 11-4.161-4.161 4.161 4.161 0 014.161 4.161" transform="translate(-20497.584 1946.827)" fill="#ffad1b" fill-rule="evenodd"/><path id="Контур_758" data-name="Контур 758" d="M361.057 39.453a6.415 6.415 0 116.417-6.415 6.422 6.422 0 01-6.417 6.415m0-8.322a1.907 1.907 0 101.909 1.907 1.908 1.908 0 00-1.909-1.907" transform="translate(-20498.84 1945.572)" fill="#040405"/><path id="Контур_759" data-name="Контур 759" d="M351.291 43.754a4.161 4.161 0 11-4.161-4.161 4.161 4.161 0 014.161 4.161" transform="translate(-20513.477 1961.836)" fill="#ffad1b" fill-rule="evenodd"/><path id="Контур_760" data-name="Контур 760" d="M348.385 51.423a6.415 6.415 0 116.415-6.415 6.424 6.424 0 01-6.415 6.415m0-8.322a1.907 1.907 0 101.907 1.907 1.909 1.909 0 00-1.907-1.907" transform="translate(-20514.732 1960.582)" fill="#040405"/><path id="Контур_761" data-name="Контур 761" d="M359.716 50.183a4.161 4.161 0 11-4.161-4.161 4.161 4.161 0 014.161 4.161" transform="translate(-20502.912 1969.898)" fill="#ffad1b" fill-rule="evenodd"/><path id="Контур_762" data-name="Контур 762" d="M356.808 57.854a6.416 6.416 0 116.417-6.417 6.423 6.423 0 01-6.417 6.417m0-8.324a1.908 1.908 0 101.909 1.907 1.908 1.908 0 00-1.909-1.907" transform="translate(-20504.168 1968.644)" fill="#040405"/><path id="Контур_763" data-name="Контур 763" d="M368.731 58.388a4.161 4.161 0 11-4.161-4.161 4.161 4.161 0 014.161 4.161" transform="translate(-20491.607 1980.187)" fill="#ffad1b" fill-rule="evenodd"/><path id="Контур_764" data-name="Контур 764" d="M365.824 66.057a6.415 6.415 0 116.417-6.415 6.422 6.422 0 01-6.417 6.415m0-8.322a1.907 1.907 0 101.909 1.907 1.908 1.908 0 00-1.909-1.907" transform="translate(-20492.861 1978.933)" fill="#040405"/><path id="Контур_765" data-name="Контур 765" d="M372.278 48.3a4.161 4.161 0 11-4.161-4.161 4.161 4.161 0 014.161 4.161" transform="translate(-20487.16 1967.538)" fill="#ffad1b" fill-rule="evenodd"/><path id="Контур_766" data-name="Контур 766" d="M369.371 55.971a6.416 6.416 0 116.417-6.415 6.422 6.422 0 01-6.417 6.415m0-8.324a1.908 1.908 0 101.909 1.909 1.909 1.909 0 00-1.909-1.909" transform="translate(-20488.414 1966.283)" fill="#040405"/><path id="Контур_767" data-name="Контур 767" d="M386.578 45.2a4.161 4.161 0 11-4.161-4.161 4.161 4.161 0 014.161 4.161" transform="translate(-20469.227 1963.646)" fill="#ffad1b" fill-rule="evenodd"/><path id="Контур_768" data-name="Контур 768" d="M383.672 52.866a6.415 6.415 0 116.415-6.415 6.423 6.423 0 01-6.415 6.415m0-8.322a1.907 1.907 0 101.907 1.907 1.909 1.909 0 00-1.907-1.907" transform="translate(-20470.482 1962.392)" fill="#040405"/><path id="Контур_769" data-name="Контур 769" d="M383.7 35.553a4.161 4.161 0 11-4.161-4.161 4.161 4.161 0 014.161 4.161" transform="translate(-20472.842 1951.552)" fill="#ffad1b" fill-rule="evenodd"/><path id="Контур_770" data-name="Контур 770" d="M380.79 43.222a6.415 6.415 0 116.415-6.415 6.424 6.424 0 01-6.415 6.415m0-8.322a1.907 1.907 0 101.907 1.907 1.91 1.91 0 00-1.907-1.907" transform="translate(-20474.096 1950.298)" fill="#040405"/><path id="Контур_771" data-name="Контур 771" d="M406.975 58.831a4.162 4.162 0 11-4.163-4.161 4.163 4.163 0 014.163 4.161" transform="translate(-20443.652 1980.743)" fill="#ffad1b" fill-rule="evenodd"/><path id="Контур_772" data-name="Контур 772" d="M404.066 66.5a6.415 6.415 0 116.417-6.415 6.422 6.422 0 01-6.417 6.415m0-8.322a1.907 1.907 0 101.909 1.907 1.908 1.908 0 00-1.909-1.907" transform="translate(-20444.906 1979.489)" fill="#040405"/><path id="Контур_773" data-name="Контур 773" d="M390.828 54.73a4.161 4.161 0 11-4.161-4.161 4.161 4.161 0 014.161 4.161" transform="translate(-20463.896 1975.6)" fill="#ffad1b" fill-rule="evenodd"/><path id="Контур_774" data-name="Контур 774" d="M387.921 62.4a6.415 6.415 0 116.417-6.415 6.422 6.422 0 01-6.417 6.415m0-8.322a1.907 1.907 0 101.909 1.907 1.908 1.908 0 00-1.909-1.907" transform="translate(-20465.152 1974.346)" fill="#040405"/><path id="Контур_775" data-name="Контур 775" d="M382.958 52.956a4.161 4.161 0 11-4.161-4.161 4.161 4.161 0 014.161 4.161" transform="translate(-20473.766 1973.375)" fill="#ffad1b" fill-rule="evenodd"/><path id="Контур_776" data-name="Контур 776" d="M380.05 60.625a6.415 6.415 0 116.417-6.415 6.422 6.422 0 01-6.417 6.415m0-8.322a1.907 1.907 0 101.909 1.907 1.908 1.908 0 00-1.909-1.91" transform="translate(-20475.021 1972.122)" fill="#040405"/><path id="Контур_777" data-name="Контур 777" d="M383.032 61.27a4.162 4.162 0 11-4.161-4.161 4.162 4.162 0 014.161 4.161" transform="translate(-20473.676 1983.801)" fill="#ffad1b" fill-rule="evenodd"/><path id="Контур_778" data-name="Контур 778" d="M380.125 68.939a6.415 6.415 0 116.415-6.415 6.423 6.423 0 01-6.415 6.415m0-8.322a1.907 1.907 0 101.907 1.907 1.909 1.909 0 00-1.907-1.907" transform="translate(-20474.93 1982.547)" fill="#040405"/><path id="Контур_779" data-name="Контур 779" d="M393.71 62.711a4.161 4.161 0 11-4.161-4.161 4.161 4.161 0 014.161 4.161" transform="translate(-20460.283 1985.608)" fill="#ffad1b" fill-rule="evenodd"/><path id="Контур_780" data-name="Контур 780" d="M390.8 70.38a6.415 6.415 0 116.417-6.415 6.422 6.422 0 01-6.417 6.415m0-8.322a1.907 1.907 0 101.909 1.907 1.908 1.908 0 00-1.909-1.907" transform="translate(-20461.539 1984.354)" fill="#040405"/><path id="Контур_781" data-name="Контур 781" d="M398.115 72.648a4.161 4.161 0 11-4.161-4.161 4.161 4.161 0 014.161 4.161" transform="translate(-20454.76 1998.07)" fill="#ffad1b" fill-rule="evenodd"/><path id="Контур_782" data-name="Контур 782" d="M395.209 80.317a6.415 6.415 0 116.417-6.415 6.424 6.424 0 01-6.417 6.415m0-8.322a1.907 1.907 0 101.909 1.907A1.91 1.91 0 00395.209 72" transform="translate(-20456.016 1996.816)" fill="#040405"/><path id="Контур_783" data-name="Контур 783" d="M382.485 78.3a4.161 4.161 0 11-4.161-4.161 4.161 4.161 0 014.161 4.161" transform="translate(-20474.359 2005.158)" fill="#ffad1b" fill-rule="evenodd"/><path id="Контур_784" data-name="Контур 784" d="M379.578 85.971A6.416 6.416 0 11386 79.556a6.422 6.422 0 01-6.417 6.415m0-8.324a1.908 1.908 0 101.909 1.909 1.909 1.909 0 00-1.909-1.909" transform="translate(-20475.613 2003.903)" fill="#040405"/><path id="Контур_785" data-name="Контур 785" d="M355.54 68.253a4.161 4.161 0 11-4.161-4.161 4.161 4.161 0 014.161 4.161" transform="translate(-20508.148 1992.558)" fill="#ffad1b" fill-rule="evenodd"/><path id="Контур_786" data-name="Контур 786" d="M352.636 75.922a6.415 6.415 0 116.413-6.415 6.425 6.425 0 01-6.413 6.415m0-8.322a1.907 1.907 0 101.9 1.907 1.911 1.911 0 00-1.9-1.907" transform="translate(-20509.404 1991.304)" fill="#040405"/><path id="Контур_787" data-name="Контур 787" d="M369.507 74.9a4.161 4.161 0 11-4.161-4.161 4.161 4.161 0 014.161 4.161" transform="translate(-20490.635 2000.899)" fill="#ffad1b" fill-rule="evenodd"/><path id="Контур_788" data-name="Контур 788" d="M366.6 82.573a6.415 6.415 0 116.415-6.415 6.424 6.424 0 01-6.415 6.415m0-8.322a1.907 1.907 0 101.907 1.907 1.909 1.909 0 00-1.907-1.907" transform="translate(-20491.889 1999.645)" fill="#040405"/><path id="Контур_789" data-name="Контур 789" d="M347.227 61.935a4.161 4.161 0 11-4.161-4.161 4.161 4.161 0 014.161 4.161" transform="translate(-20518.574 1984.635)" fill="#ffad1b" fill-rule="evenodd"/><path id="Контур_790" data-name="Контур 790" d="M344.321 69.6a6.415 6.415 0 116.415-6.415 6.424 6.424 0 01-6.415 6.415m0-8.322a1.907 1.907 0 101.907 1.907 1.91 1.91 0 00-1.907-1.907" transform="translate(-20519.828 1983.381)" fill="#040405"/><path id="Контур_791" data-name="Контур 791" d="M357.2 59.2a4.161 4.161 0 11-4.161-4.161A4.161 4.161 0 01357.2 59.2" transform="translate(-20506.064 1981.208)" fill="#ffad1b" fill-rule="evenodd"/><path id="Контур_792" data-name="Контур 792" d="M354.3 66.871a6.415 6.415 0 116.417-6.415 6.422 6.422 0 01-6.417 6.415m0-8.322a1.907 1.907 0 101.909 1.907 1.908 1.908 0 00-1.909-1.907" transform="translate(-20507.318 1979.954)" fill="#040405"/><path id="Контур_793" data-name="Контур 793" d="M405.2 32.266a4.161 4.161 0 11-4.161-4.161 4.161 4.161 0 014.161 4.161" transform="translate(-20445.875 1947.43)" fill="#ffad1b" fill-rule="evenodd"/><path id="Контур_794" data-name="Контур 794" d="M402.293 39.935a6.415 6.415 0 116.417-6.415 6.422 6.422 0 01-6.417 6.415m0-8.322a1.907 1.907 0 101.907 1.907 1.908 1.908 0 00-1.909-1.907" transform="translate(-20447.129 1946.176)" fill="#040405"/><path id="Контур_795" data-name="Контур 795" d="M410.226 43.867a4.161 4.161 0 11-4.161-4.161 4.161 4.161 0 014.161 4.161" transform="translate(-20439.572 1961.978)" fill="#ffad1b" fill-rule="evenodd"/><path id="Контур_796" data-name="Контур 796" d="M407.32 51.536a6.415 6.415 0 116.417-6.415 6.423 6.423 0 01-6.417 6.415m0-8.322a1.907 1.907 0 101.909 1.907 1.909 1.909 0 00-1.909-1.907" transform="translate(-20440.828 1960.724)" fill="#040405"/><path id="Контур_797" data-name="Контур 797" d="M367.846 41.317a4.162 4.162 0 11-4.163-4.161 4.163 4.163 0 014.163 4.161" transform="translate(-20492.719 1958.78)" fill="#ffad1b" fill-rule="evenodd"/><path id="Контур_798" data-name="Контур 798" d="M364.937 48.986a6.415 6.415 0 116.417-6.415 6.422 6.422 0 01-6.417 6.415m0-8.322a1.907 1.907 0 101.909 1.907 1.908 1.908 0 00-1.909-1.907" transform="translate(-20493.975 1957.526)" fill="#040405"/></g></svg>