<svg xmlns="http://www.w3.org/2000/svg" width="147.475" height="147.478" viewBox="0 0 147.475 147.478"><g id="Сгруппировать_360" data-name="Сгруппировать 360" transform="translate(19414.135 -1956.942)"><g id="Сгруппировать_336" data-name="Сгруппировать 336" transform="translate(-19414.135 1956.942)"><path id="Контур_680" data-name="Контур 680" d="M756.525 65.588a31.919 31.919 0 11-31.919-31.919 31.918 31.918 0 0131.919 31.919" transform="translate(-649.848 8.151)" fill="#ffad1b" fill-rule="evenodd"/><path id="Контур_681" data-name="Контур 681" d="M731.667 64.839a7.71 7.71 0 11-7.711-7.711 7.712 7.712 0 017.711 7.711" transform="translate(-602.075 55.715)" fill="#ffad1b" fill-rule="evenodd"/><path id="Контур_708" data-name="Контур 708" d="M752.276 167.334a73.662 73.662 0 1169.149-48.074 6.055 6.055 0 11-11.353-4.214 61.567 61.567 0 10-35.658 36.085 6.054 6.054 0 014.351 11.3 73.378 73.378 0 01-26.488 4.9" transform="translate(-678.537 -19.856)" fill="#040405"/></g></g></svg>