<svg xmlns="http://www.w3.org/2000/svg" width="189.09" height="46.375" viewBox="0 0 189.09 46.375"><g id="Сгруппировать_408" data-name="Сгруппировать 408" transform="translate(-24)"><path id="Контур_1413" data-name="Контур 1413" d="M3.777 78.29a3.027 3.027 0 01-1.776.4H0v-7.26h1.825a2.2 2.2 0 012.227 1.187 1.939 1.939 0 01.147.746 1.724 1.724 0 01-.799 1.464 1.891 1.891 0 011.207 1.785 1.972 1.972 0 01-.834 1.678m-.608-5.749a1.89 1.89 0 00-1.465-.452H.726v2.473h.912a2.575 2.575 0 001.246-.206 1.154 1.154 0 00.589-1.02 1.138 1.138 0 00-.3-.795m-.137 2.845a3.805 3.805 0 00-1.413-.167H.726v2.816h1.02a3.431 3.431 0 001.374-.187 1.319 1.319 0 00.765-1.236 1.34 1.34 0 00-.853-1.226" transform="translate(24 -34.427)" fill="#fff"/><path id="Контур_1414" data-name="Контур 1414" d="M11.385 77.186v3.139H10.7v-5.366h.687v.775h.02a1.519 1.519 0 011.511-.912v.726a1.54 1.54 0 00-1.53 1.639" transform="translate(18.844 -36.06)" fill="#fff"/><path id="Контур_1415" data-name="Контур 1415" d="M16.4 71.432h.687v1.236H16.4zm0 1.893h.687v5.367H16.4z" transform="translate(16.098 -34.427)" fill="#fff"/><path id="Контур_1416" data-name="Контур 1416" d="M24.218 80.326v-2.954a2.05 2.05 0 00-.51-1.472 1.708 1.708 0 00-2.335 0 1.984 1.984 0 00-.5 1.423v3h-.686v-5.364h.686v.687h.02a1.945 1.945 0 011.648-.824 2.288 2.288 0 012.365 2.55v2.953z" transform="translate(14.271 -36.06)" fill="#fff"/><path id="Контур_1417" data-name="Контур 1417" d="M36.3 81.445a2.69 2.69 0 01-2.129.991 2.717 2.717 0 01-2.747-1.972h.726a2.071 2.071 0 002.011 1.355 1.845 1.845 0 001.943-2v-.471h-.02a2.307 2.307 0 01-2.07 1.109 2.783 2.783 0 01-2.806-2.787 2.82 2.82 0 012.806-2.845 2.407 2.407 0 012.07 1.1h.02v-.962h.686v4.523a3.071 3.071 0 01-.49 1.962m-2.286-6a2.2 2.2 0 102.129 2.208 2.162 2.162 0 00-2.129-2.208" transform="translate(8.96 -36.06)" fill="#fff"/><path id="Контур_1418" data-name="Контур 1418" d="M44.479 71.432h.687v1.236h-.687zm0 1.893h.687v5.367h-.687z" transform="translate(2.563 -34.427)" fill="#fff"/><path id="Контур_1419" data-name="Контур 1419" d="M52.3 80.326v-2.954a2.05 2.05 0 00-.51-1.472 1.708 1.708 0 00-2.335 0 1.984 1.984 0 00-.5 1.423v3h-.686v-5.364h.686v.687h.02a1.945 1.945 0 011.648-.824 2.288 2.288 0 012.365 2.55v2.953z" transform="translate(.738 -36.06)" fill="#fff"/><path id="Контур_1420" data-name="Контур 1420" d="M64.378 81.445a2.689 2.689 0 01-2.129.991 2.718 2.718 0 01-2.749-1.973h.726a2.071 2.071 0 002.011 1.355 1.845 1.845 0 001.943-2v-.471h-.02a2.307 2.307 0 01-2.07 1.109 2.783 2.783 0 01-2.806-2.787 2.82 2.82 0 012.806-2.845 2.407 2.407 0 012.07 1.1h.02v-.962h.686v4.523a3.071 3.071 0 01-.491 1.962m-2.286-6a2.2 2.2 0 102.129 2.208 2.161 2.161 0 00-2.129-2.208" transform="translate(-4.572 -36.06)" fill="#fff"/><path id="Контур_1421" data-name="Контур 1421" d="M78.732 82.337h-.716l.932-2.06-2.09-5.19h.726l1.707 4.278 1.825-4.278h.726z" transform="translate(-13.041 -36.188)" fill="#fff"/><path id="Контур_1422" data-name="Контур 1422" d="M90.315 80.454a2.816 2.816 0 112.816-2.816 2.823 2.823 0 01-2.816 2.816m.01-5.014a2.2 2.2 0 000 4.4 2.2 2.2 0 000-4.4" transform="translate(-18.18 -36.06)" fill="#fff"/><path id="Контур_1423" data-name="Контур 1423" d="M104.353 80.453v-.834h-.02a1.83 1.83 0 01-1.717.962 2.312 2.312 0 01-1.845-.8 2.745 2.745 0 01-.47-1.727v-2.968h.686v2.953c0 1.109.4 1.923 1.629 1.923a1.535 1.535 0 001.138-.432 2.018 2.018 0 00.559-1.609v-2.835H105v5.367z" transform="translate(-24.34 -36.188)" fill="#fff"/><path id="Контур_1424" data-name="Контур 1424" d="M112.557 77.186v3.139h-.687v-5.366h.687v.775h.02a1.519 1.519 0 011.511-.912v.726a1.54 1.54 0 00-1.53 1.639" transform="translate(-29.915 -36.06)" fill="#fff"/><path id="Контур_1425" data-name="Контур 1425" d="M126.791 78.692v-2.953a2.05 2.05 0 00-.51-1.472 1.709 1.709 0 00-2.335 0 1.986 1.986 0 00-.5 1.423v3h-.686v-7.26h.686v2.58h.02a1.946 1.946 0 011.648-.824 2.288 2.288 0 012.365 2.55v2.953z" transform="translate(-35.163 -34.427)" fill="#fff"/><path id="Контур_1426" data-name="Контур 1426" d="M134.365 71.432h.687v1.236h-.687zm0 1.893h.687v5.367h-.687z" transform="translate(-40.757 -34.427)" fill="#fff"/><path id="Контур_1427" data-name="Контур 1427" d="M142.714 81.445a2.69 2.69 0 01-2.129.991 2.717 2.717 0 01-2.747-1.972h.726a2.071 2.071 0 002.011 1.355 1.845 1.845 0 001.943-2v-.471h-.02a2.307 2.307 0 01-2.07 1.109 2.783 2.783 0 01-2.806-2.787 2.82 2.82 0 012.806-2.845 2.407 2.407 0 012.07 1.1h.02v-.962h.686v4.523a3.071 3.071 0 01-.49 1.962m-2.286-6a2.2 2.2 0 102.129 2.208 2.162 2.162 0 00-2.129-2.208" transform="translate(-42.326 -36.06)" fill="#fff"/><path id="Контур_1428" data-name="Контур 1428" d="M154.872 78.692v-2.953a2.05 2.05 0 00-.51-1.472 1.709 1.709 0 00-2.335 0 1.984 1.984 0 00-.5 1.423v3h-.686v-7.26h.686v2.58h.02a1.945 1.945 0 011.648-.824 2.288 2.288 0 012.365 2.55v2.953z" transform="translate(-48.697 -34.427)" fill="#fff"/><path id="Контур_1429" data-name="Контур 1429" d="M167.526 77.893h-4.886a2.125 2.125 0 002.08 1.942 2.028 2.028 0 001.923-1.265h.726a2.8 2.8 0 11-2.649-3.748 2.86 2.86 0 012.816 2.875c0 .068-.01.127-.01.2m-2.8-2.453a2.122 2.122 0 00-2.09 1.835h4.189a2.132 2.132 0 00-2.1-1.835" transform="translate(-54.044 -36.06)" fill="#fff"/><path id="Контур_1430" data-name="Контур 1430" d="M175.626 80.454a1.6 1.6 0 01-1.648-1.658v-.059h.686c.01.618.3 1.1.962 1.1a.9.9 0 001-.961c0-1.423-2.492-.765-2.492-2.561a1.459 1.459 0 011.53-1.491 1.441 1.441 0 011.462 1.462h-.687a.817.817 0 00-.8-.844.792.792 0 00-.814.8c0 1.226 2.492.589 2.492 2.571a1.549 1.549 0 01-1.688 1.639" transform="translate(-59.849 -36.06)" fill="#fff"/><path id="Контур_1431" data-name="Контур 1431" d="M182.95 73.944v4.748h-.687v-4.748h-1.128v-.619h1.128v-1.893h.687v1.893h1.285v.619z" transform="translate(-63.298 -34.427)" fill="#fff"/><path id="Контур_1432" data-name="Контур 1432" d="M196.543 80.454a2.512 2.512 0 01-2.09-1.069h-.02v2.825h-.686v-7.251h.686v.941h.02a2.509 2.509 0 012.09-1.079 2.817 2.817 0 110 5.632m0-5.014a2.2 2.2 0 000 4.4 2.2 2.2 0 100-4.4" transform="translate(-69.376 -36.06)" fill="#fff"/><path id="Контур_1433" data-name="Контур 1433" d="M209.04 80.454a2.816 2.816 0 112.816-2.816 2.823 2.823 0 01-2.816 2.816m.01-5.014a2.2 2.2 0 000 4.4 2.2 2.2 0 000-4.4" transform="translate(-75.398 -36.06)" fill="#fff"/><path id="Контур_1434" data-name="Контур 1434" d="M219.931 73.944v4.748h-.687v-4.748h-1.128v-.619h1.128v-1.893h.687v1.893h1.285v.619z" transform="translate(-81.121 -34.427)" fill="#fff"/><path id="Контур_1435" data-name="Контур 1435" d="M230.581 77.893H225.7a2.125 2.125 0 002.08 1.942 2.028 2.028 0 001.92-1.265h.726a2.8 2.8 0 11-2.649-3.748 2.86 2.86 0 012.816 2.875c0 .068-.01.127-.01.2m-2.8-2.453a2.122 2.122 0 00-2.09 1.835h4.19a2.132 2.132 0 00-2.1-1.835" transform="translate(-84.433 -36.06)" fill="#fff"/><path id="Контур_1436" data-name="Контур 1436" d="M241.842 80.326v-2.954a2.052 2.052 0 00-.51-1.472 1.709 1.709 0 00-2.335 0 1.984 1.984 0 00-.5 1.423v3h-.686v-5.364h.686v.687h.02a1.945 1.945 0 011.648-.824 2.288 2.288 0 012.365 2.55v2.953z" transform="translate(-90.612 -36.06)" fill="#fff"/><path id="Контур_1437" data-name="Контур 1437" d="M250.209 73.944v4.748h-.687v-4.748h-1.128v-.619h1.128v-1.893h.687v1.893h1.285v.619z" transform="translate(-95.713 -34.427)" fill="#fff"/><path id="Контур_1438" data-name="Контур 1438" d="M255.778 71.432h.687v1.236h-.687zm0 1.893h.687v5.367h-.687z" transform="translate(-99.271 -34.427)" fill="#fff"/><path id="Контур_1439" data-name="Контур 1439" d="M264.124 80.326v-.942h-.02a2.463 2.463 0 01-2.09 1.069 2.817 2.817 0 110-5.632A2.4 2.4 0 01264.1 75.9h.02v-.942h.686v5.367zm-2.109-4.886a2.2 2.2 0 102.148 2.208 2.174 2.174 0 00-2.148-2.208" transform="translate(-100.887 -36.06)" fill="#fff"/><path id="Прямоугольник_288" data-name="Прямоугольник 288" transform="translate(165.168 37.005)" fill="#fff" d="M0 0h.687v7.26H0z"/><path id="Контур_1440" data-name="Контур 1440" d="M282.38 73.944v4.748h-.687v-4.748h-1.128v-.619h1.128v-1.893h.687v1.893h1.285v.619z" transform="translate(-111.218 -34.427)" fill="#fff"/><path id="Контур_1441" data-name="Контур 1441" d="M290.311 80.454a2.816 2.816 0 112.816-2.816 2.823 2.823 0 01-2.816 2.816m.01-5.014a2.2 2.2 0 000 4.4 2.2 2.2 0 000-4.4" transform="translate(-114.567 -36.06)" fill="#fff"/><path id="Контур_1442" data-name="Контур 1442" d="M308.459 75.984l2.05 2.708h-.909l-2.462-3.287a5.926 5.926 0 001.56-.108 1.593 1.593 0 001.2-1.54 1.619 1.619 0 00-.795-1.393 2.789 2.789 0 00-1.413-.275h-1.266v6.6h-.726v-7.26h1.845a4.423 4.423 0 011.786.275 2.249 2.249 0 011.3 2.07 2.207 2.207 0 01-2.159 2.207" transform="translate(-123.327 -34.427)" fill="#fff"/><path id="Контур_1443" data-name="Контур 1443" d="M322.173 77.893h-4.886a2.126 2.126 0 002.081 1.942 2.028 2.028 0 001.922-1.265h.726a2.8 2.8 0 11-2.649-3.748 2.86 2.86 0 012.815 2.875c0 .068-.009.127-.009.2m-2.8-2.453a2.122 2.122 0 00-2.09 1.835h4.19a2.132 2.132 0 00-2.1-1.835" transform="translate(-128.575 -36.06)" fill="#fff"/><path id="Контур_1444" data-name="Контур 1444" d="M333.958 80.326v-.942h-.02a2.462 2.462 0 01-2.09 1.069 2.817 2.817 0 110-5.632 2.4 2.4 0 012.09 1.079h.02v-.942h.687v5.367zm-2.11-4.886A2.2 2.2 0 10334 77.648a2.174 2.174 0 00-2.149-2.208" transform="translate(-134.543 -36.06)" fill="#fff"/><path id="Прямоугольник_289" data-name="Прямоугольник 289" transform="translate(201.347 37.005)" fill="#fff" d="M0 0h.687v7.26H0z"/><path id="Контур_1445" data-name="Контур 1445" d="M346.12 71.432h.687v1.236h-.687zm0 1.893h.687v5.367h-.687z" transform="translate(-142.812 -34.427)" fill="#fff"/><path id="Контур_1446" data-name="Контур 1446" d="M350.757 73.944v4.748h-.687v-4.748h-1.128v-.619h1.128v-1.893h.687v1.893h1.285v.619z" transform="translate(-144.172 -34.427)" fill="#fff"/><path id="Контур_1447" data-name="Контур 1447" d="M357.253 82.337h-.716l.932-2.06-2.09-5.19h.726l1.707 4.278 1.825-4.278h.726z" transform="translate(-147.273 -36.188)" fill="#fff"/><path id="Контур_1448" data-name="Контур 1448" d="M271.327 22.324V17.76h10.4a9.777 9.777 0 10-.151 4.564z" transform="translate(-102.474 -4.816)" fill="#ffbe14"/><path id="Прямоугольник_290" data-name="Прямоугольник 290" transform="translate(169.793 13.855)" fill="#fff" d="M0 0h29.952v2.693H0z"/><path id="Контур_1449" data-name="Контур 1449" d="M10.64 1.09H.471v28.421H10.64c9.821 0 15.079-5.693 15.079-14.21S20.461 1.09 10.64 1.09m0 25.552H3.6V3.958h7.04c8.04 0 11.95 4.519 11.95 11.342s-3.91 11.342-11.95 11.342" transform="translate(23.773 -.525)" fill="#fff"/><path id="Контур_1450" data-name="Контур 1450" d="M57.675 29.511h20.858v-2.869H60.8V16.517h15.21v-2.868H60.8V3.958h17.73V1.09H57.675z" transform="translate(-3.796 -.525)" fill="#fff"/><path id="Контур_1451" data-name="Контур 1451" d="M126.839 18.342c0 5.432-3.041 8.865-8.778 8.865s-8.778-3.39-8.778-8.865V1.09h-3.129v17.252c0 7.17 4.259 11.733 11.95 11.733 7.561 0 11.777-4.562 11.777-11.733V1.09h-3.042z" transform="translate(-27.16 -.525)" fill="#fff"/><path id="Контур_1452" data-name="Контур 1452" d="M158.492 3.959h9.647v25.552h3.129V3.959h9.647V1.091h-22.423z" transform="translate(-52.385 -.526)" fill="#fff"/><path id="Контур_1453" data-name="Контур 1453" d="M216.756 13.254c-3.868-.608-7.431-1.217-7.431-4.867 0-3.346 2.607-5.519 6.736-5.519 4.085 0 6.562 2.086 6.736 5.345h3C225.621 3.26 221.8 0 216.06 0c-5.867 0-9.778 3.433-9.778 8.474 0 6.04 4.954 6.909 9.56 7.561 3.868.564 7.475 1.216 7.475 4.954 0 3.476-2.781 5.692-7.3 5.692s-7.17-2.086-7.3-5.692h-3.085c.13 5.3 4.215 8.56 10.386 8.56 6.258 0 10.343-3.346 10.343-8.648 0-6.084-5-6.91-9.6-7.648" transform="translate(-75.104)" fill="#fff"/><path id="Контур_1454" data-name="Контур 1454" d="M266.717 2.868a11.487 11.487 0 0111.125 7.214h3.3C279.319 4.041 273.844 0 266.717 0c-8.865 0-15.123 6.258-15.123 14.775s6.258 14.774 15.123 14.774c7.127 0 12.6-4.041 14.428-10.081h-3.3a11.488 11.488 0 01-11.125 7.214c-7.083 0-11.994-5.041-11.994-11.907s4.911-11.907 11.994-11.907" transform="translate(-97.255)" fill="#fff"/><path id="Контур_1455" data-name="Контур 1455" d="M338.908 1.09v13.163h-18.426V1.09h-3.129v28.421h3.129v-12.39h18.426v12.39h3.129V1.09z" transform="translate(-128.947 -.526)" fill="#fff"/></g></svg>